<?xml version="1.0" standalone="no"?>
<!DOCTYPE svg PUBLIC "-//W3C//DTD SVG 20010904//EN"
 "http://www.w3.org/TR/2001/REC-SVG-20010904/DTD/svg10.dtd">
<svg version="1.0" xmlns="http://www.w3.org/2000/svg"
 width="772.000000pt" height="772.000000pt" viewBox="0 0 772.000000 772.000000"
 preserveAspectRatio="xMidYMid meet">
<metadata>
Created by potrace 1.11, written by Peter Selinger 2001-2013
</metadata>
<g transform="translate(0.000000,772.000000) scale(0.100000,-0.100000)"
fill="#000000" stroke="none">
<path d="M2033 7660 c-2 -3 -21 -5 -41 -6 -20 -1 -55 -4 -77 -9 -22 -4 -50 -8
-62 -10 -58 -8 -238 -72 -323 -114 -125 -63 -203 -113 -344 -221 -33 -25 -209
-202 -249 -250 -66 -79 -168 -239 -228 -357 -31 -62 -55 -113 -52 -113 3 0 1
-6 -5 -12 -21 -27 -125 -347 -137 -424 -3 -16 -12 -63 -20 -104 -17 -83 -23
-120 -31 -195 -3 -27 -7 -61 -9 -75 -9 -49 -18 -228 -19 -390 -1 -186 -10
-171 84 -155 25 4 59 9 76 10 17 1 35 4 40 6 23 13 300 0 379 -18 17 -3 37 -7
45 -8 51 -5 236 -74 346 -128 144 -71 260 -123 299 -133 6 -1 44 -11 85 -23
129 -35 211 -45 360 -44 82 0 215 8 215 13 0 1 14 4 30 6 205 31 437 137 620
284 54 43 165 148 165 156 0 4 8 14 18 23 88 76 245 375 288 546 12 49 33 163
39 221 10 82 5 264 -9 342 -3 17 -8 47 -12 65 -8 47 -49 184 -73 244 -122 306
-358 567 -646 716 -110 57 -258 113 -325 123 -19 3 -51 9 -70 14 -72 18 -344
33 -357 20z m217 -211 c86 -4 329 -65 350 -88 3 -3 11 -7 19 -9 35 -8 163 -78
169 -93 2 -5 8 -9 14 -9 45 0 338 -302 338 -349 0 -5 3 -11 8 -13 4 -1 24 -34
44 -73 200 -387 165 -864 -89 -1223 -47 -66 -189 -216 -233 -245 -14 -9 -45
-30 -69 -47 -200 -142 -491 -217 -751 -196 -178 15 -306 53 -478 143 -105 54
-236 114 -256 117 -6 1 -16 5 -22 9 -18 11 -234 65 -287 71 -26 3 -68 9 -94
12 -27 4 -97 6 -156 7 l-108 0 6 106 c3 58 7 120 9 136 2 17 7 59 10 95 7 64
13 105 16 105 1 0 3 14 5 30 4 34 9 60 24 125 5 25 12 56 15 70 19 93 106 354
124 372 7 7 12 18 12 25 0 32 123 240 207 351 135 177 345 352 540 450 122 61
277 106 408 119 33 3 61 6 62 7 2 1 35 1 75 -1 40 -2 80 -4 88 -4z"/>
<path d="M2060 7019 c-87 -11 -116 -18 -172 -40 -225 -88 -391 -261 -457 -474
-29 -93 -34 -125 -34 -240 0 -118 20 -208 70 -314 37 -78 108 -181 126 -181 6
0 8 -3 5 -6 -17 -17 215 -184 255 -184 5 0 23 -7 40 -15 60 -28 167 -43 276
-40 58 2 119 6 135 10 52 11 151 48 158 59 4 6 8 8 8 4 0 -11 99 49 155 95 28
22 71 66 96 96 44 53 124 181 113 181 -2 0 5 18 16 40 11 22 18 40 16 40 -3 0
0 15 5 33 23 74 30 225 16 312 -30 190 -147 377 -302 485 -28 19 -52 37 -55
40 -9 10 -129 61 -177 75 -86 26 -206 35 -293 24z m194 -220 c134 -24 233 -91
344 -234 16 -21 59 -121 69 -160 13 -58 12 -201 -3 -258 -45 -177 -178 -320
-352 -378 -73 -25 -235 -35 -282 -17 -14 6 -36 12 -50 15 -50 9 -147 70 -211
133 -70 69 -118 153 -144 249 -14 52 -15 201 -2 250 40 152 134 275 267 348
51 28 127 52 195 61 63 8 74 7 169 -9z"/>
<path d="M4850 7018 c-135 -20 -303 -100 -401 -189 -57 -53 -55 -54 -54 12 0
33 -2 64 -5 68 -3 3 -51 7 -107 8 l-103 1 -1 -37 c-1 -40 -1 -1172 0 -1209 1
-22 2 -23 108 -20 l107 3 2 345 c2 367 6 409 55 505 128 249 388 353 676 269
29 -8 55 -20 59 -25 3 -5 10 -7 15 -4 5 4 9 1 9 -4 0 -6 6 -11 13 -11 22 0
105 -80 146 -141 36 -54 71 -140 87 -214 3 -16 7 -176 9 -355 2 -179 4 -335 4
-347 1 -21 4 -22 108 -20 l107 2 -1 320 c0 316 -4 386 -24 476 -6 26 -11 54
-13 63 -1 8 -5 19 -9 22 -4 4 -7 14 -7 22 0 9 -19 54 -42 101 -84 169 -257
304 -443 347 -70 17 -222 22 -295 12z"/>
<path d="M6210 5249 c-95 -8 -123 -12 -195 -29 -27 -6 -57 -13 -65 -15 -8 -2
-46 -15 -85 -28 -218 -76 -411 -204 -570 -378 -49 -53 -147 -179 -139 -179 3
0 -9 -20 -26 -44 -38 -57 -124 -244 -136 -298 -1 -5 -2 -9 -4 -10 -2 -4 -7
-24 -15 -62 -3 -16 -8 -33 -11 -37 -2 -4 -7 -27 -9 -51 -3 -24 -9 -67 -14 -97
-9 -57 -7 -281 3 -341 3 -19 7 -46 9 -60 2 -14 7 -38 11 -55 3 -16 8 -39 10
-50 2 -11 9 -32 15 -47 6 -16 9 -28 6 -28 -10 0 97 -237 138 -305 38 -62 154
-209 209 -262 93 -92 113 -108 228 -183 259 -170 313 -218 486 -432 22 -28
134 -223 134 -234 0 -6 9 -28 19 -50 11 -23 26 -59 33 -82 7 -23 16 -42 19
-42 3 0 66 36 140 81 74 45 147 88 163 98 16 9 37 24 48 34 10 9 20 17 24 17
7 0 225 160 244 180 8 8 38 33 65 55 79 63 254 242 328 335 37 47 71 90 76 96
4 5 21 30 37 55 16 24 32 46 37 47 4 2 7 10 7 17 0 8 6 20 13 27 13 15 16 21
76 130 23 43 41 79 40 80 0 2 5 17 12 33 7 17 13 32 14 35 5 14 18 47 25 65
16 36 60 189 64 225 3 19 5 35 6 35 4 0 17 75 26 145 13 102 9 414 -6 450 -1
3 -2 9 -1 13 2 11 -44 181 -63 234 -35 99 -137 292 -158 301 -4 2 -8 8 -8 14
0 16 -105 142 -170 204 -88 85 -116 107 -210 167 -130 85 -227 132 -345 167
-104 31 -146 40 -255 55 -66 9 -195 11 -280 4z m310 -228 c127 -27 162 -36
190 -51 14 -7 27 -13 30 -13 20 2 139 -56 211 -102 73 -47 99 -67 142 -107 15
-15 36 -33 46 -40 54 -38 182 -213 240 -328 48 -95 93 -233 106 -320 18 -131
25 -269 13 -276 -4 -3 -5 -11 -1 -20 8 -22 -16 -197 -43 -304 -50 -197 -166
-446 -271 -580 -7 -8 -33 -43 -58 -77 -70 -95 -215 -243 -339 -347 -127 -106
-220 -176 -236 -176 -5 0 -10 -4 -10 -9 0 -9 -131 -94 -163 -107 -12 -4 -20 1
-26 18 -5 14 -28 56 -52 94 -137 225 -314 401 -559 555 -47 29 -87 56 -90 59
-3 3 -23 18 -45 35 -39 28 -163 150 -196 192 -34 43 -99 142 -99 152 0 5 -4
11 -8 13 -24 10 -115 245 -127 328 -4 25 -9 48 -11 52 -13 21 -19 233 -10 323
10 88 36 200 64 275 9 25 17 47 17 50 3 25 123 229 151 257 8 8 14 18 14 21 0
8 144 156 180 185 156 128 383 227 575 252 28 4 51 8 53 10 8 7 265 -4 312
-14z"/>
<path d="M6234 4599 c-2 -5 -10 -6 -17 -3 -7 2 -43 -5 -82 -16 -38 -12 -76
-22 -82 -22 -7 -1 -13 -5 -13 -10 0 -4 -7 -8 -15 -8 -29 0 -158 -86 -219 -146
-34 -34 -79 -86 -100 -118 -32 -49 -85 -151 -93 -181 -48 -184 -49 -298 -3
-465 54 -196 225 -383 428 -470 69 -29 85 -34 176 -49 111 -19 297 3 378 45
15 8 28 12 28 9 0 -4 13 3 29 14 16 12 32 21 36 21 11 0 88 63 132 110 41 42
43 43 44 20 3 -60 6 -116 8 -126 1 -8 34 -11 104 -10 l102 1 -1 355 c0 195 -3
381 -7 413 -28 238 -200 469 -429 577 -26 12 -53 22 -60 24 -7 1 -17 4 -23 8
-10 5 -36 12 -100 24 -47 9 -216 11 -221 3z m226 -224 c66 -17 144 -53 182
-83 61 -47 133 -134 164 -197 33 -68 65 -205 58 -251 -2 -10 -6 -39 -9 -63
-25 -213 -195 -396 -416 -447 -88 -21 -245 -5 -328 33 -47 22 -151 95 -176
125 -58 66 -110 165 -130 243 -11 44 -14 196 -4 223 5 13 11 35 14 50 6 36 57
141 84 172 115 134 212 188 386 213 40 5 113 -2 175 -18z"/>
<path d="M570 4584 c-76 -20 -159 -53 -215 -87 -51 -31 -195 -159 -195 -174 0
-2 -11 -19 -25 -37 -14 -18 -25 -38 -25 -44 0 -7 -4 -12 -9 -12 -12 0 -70
-146 -87 -222 -14 -57 -13 -227 2 -298 16 -84 18 -89 62 -180 50 -101 64 -121
152 -208 81 -80 189 -145 300 -179 122 -38 288 -42 416 -8 50 12 111 33 135
46 24 13 47 22 52 21 4 -1 7 3 7 8 0 6 7 10 15 10 8 0 15 4 15 9 0 5 9 12 19
16 48 15 178 162 221 250 8 17 17 32 21 35 7 7 49 151 55 192 7 45 12 220 7
234 -2 7 -106 10 -321 10 l-317 -1 0 -105 0 -105 204 -3 203 -2 -7 -38 c-21
-118 -138 -265 -262 -330 -34 -18 -66 -33 -70 -34 -5 0 -12 -2 -18 -4 -67 -23
-224 -25 -291 -4 -203 64 -352 225 -389 420 -6 35 -7 152 -1 180 1 8 6 33 11
55 13 67 75 174 139 239 102 102 231 157 373 158 129 0 254 -43 342 -119 l36
-31 45 36 c61 50 78 64 103 85 l20 17 -34 31 c-103 94 -281 179 -381 183 -16
0 -28 3 -28 6 0 15 -202 3 -280 -16z"/>
<path d="M3425 4601 c-11 -5 -25 -6 -31 -4 -6 2 -24 -1 -40 -8 -16 -6 -40 -13
-54 -16 -29 -5 -158 -69 -181 -89 -8 -8 -19 -14 -22 -14 -7 0 -41 -29 -91 -75
-101 -96 -195 -275 -214 -410 -10 -77 -6 -238 7 -292 60 -232 198 -406 400
-507 55 -28 113 -49 123 -45 2 0 16 -4 31 -10 15 -6 42 -14 60 -17 48 -9 272
-4 272 6 0 1 8 3 17 5 36 7 144 45 178 62 103 55 219 156 278 244 l31 47 -100
41 -100 41 -73 -72 c-71 -72 -152 -122 -231 -144 -85 -23 -223 -25 -294 -4
-69 21 -161 72 -211 117 -48 43 -107 118 -108 137 0 5 -5 12 -10 15 -9 5 -52
119 -52 136 0 3 286 5 635 5 501 0 635 3 636 13 1 21 0 172 -1 172 -1 0 -3 14
-5 30 -6 55 -35 148 -65 212 -98 211 -300 373 -520 418 -51 11 -242 15 -265 6z
m201 -215 c85 -14 165 -49 238 -106 42 -33 106 -105 106 -119 0 -5 4 -11 8
-13 14 -6 64 -122 66 -152 l1 -29 -513 -1 -514 -1 7 40 c10 66 75 175 140 236
62 58 81 71 140 99 106 50 202 64 321 46z"/>
<path d="M2027 2834 c-1 -1 -22 -4 -47 -8 -106 -14 -128 -18 -185 -32 -78 -20
-177 -54 -192 -66 -7 -6 -13 -7 -13 -3 0 8 -178 -86 -239 -127 -198 -134 -373
-337 -476 -552 -42 -88 -91 -225 -101 -283 -3 -15 -7 -36 -10 -45 -6 -19 -9
-36 -20 -113 -10 -68 -11 -286 -1 -292 4 -2 5 -9 2 -14 -7 -10 19 -163 36
-215 5 -17 11 -40 13 -50 13 -66 106 -260 168 -351 15 -23 28 -46 28 -51 0 -6
3 -12 8 -14 4 -1 30 -30 57 -63 88 -105 129 -142 300 -273 14 -11 156 -92 161
-92 2 0 32 -13 66 -28 71 -33 174 -65 263 -82 33 -6 76 -15 96 -19 20 -5 105
-7 190 -6 140 2 185 6 259 21 14 3 38 7 54 10 81 15 345 118 366 143 3 4 16
12 30 19 122 62 367 270 477 404 46 56 130 174 149 208 10 19 22 37 25 40 23
18 181 365 194 424 1 6 5 18 8 26 8 21 49 168 57 210 30 140 48 241 55 310 3
30 8 71 11 90 9 59 13 137 18 348 l5 202 -22 -4 c-171 -35 -424 -40 -557 -10
-14 3 -38 8 -55 10 -69 12 -281 90 -335 124 -47 29 -298 143 -308 140 -3 -1
-81 20 -102 28 -15 5 -24 7 -75 16 -81 15 -118 18 -232 20 -68 2 -124 2 -126
0z m293 -228 c14 -4 36 -8 50 -11 52 -10 66 -14 115 -30 64 -21 69 -22 75 -23
3 0 79 -38 170 -84 142 -72 309 -139 383 -154 12 -2 33 -6 47 -9 68 -14 97
-19 118 -19 12 -1 22 -3 22 -6 0 -6 108 -12 230 -14 l85 -1 0 -38 c1 -45 -21
-298 -29 -342 -3 -16 -9 -50 -12 -75 -3 -25 -8 -54 -10 -65 -2 -11 -7 -33 -9
-48 -6 -30 -31 -131 -46 -187 -5 -19 -11 -39 -12 -45 -7 -26 -50 -151 -56
-160 -3 -5 -6 -15 -7 -21 -4 -25 -117 -246 -161 -314 -52 -82 -50 -79 -121
-165 -156 -190 -388 -366 -582 -442 -103 -39 -100 -39 -138 -47 -13 -3 -31 -7
-40 -10 -58 -17 -172 -30 -272 -29 -80 0 -197 10 -209 18 -3 1 -23 6 -44 9
-21 3 -54 13 -74 21 -19 8 -43 15 -52 15 -34 0 -254 116 -299 157 -7 7 -18 13
-23 13 -9 0 -202 189 -229 225 -92 123 -192 334 -214 455 -3 19 -8 46 -11 60
-13 63 -17 97 -18 173 -1 77 10 224 18 236 2 4 6 22 9 41 16 106 99 296 182
422 62 93 209 240 304 303 77 51 221 125 244 125 7 0 16 3 20 7 3 4 12 8 19 9
7 2 46 12 87 24 41 12 98 24 125 27 28 3 52 7 54 9 6 5 283 -4 311 -10z"/>
</g>
</svg>
