<?xml version="1.0" encoding="utf-8"?>
<!-- Generator: Adobe Illustrator 22.0.1, SVG Export Plug-In . SVG Version: 6.00 Build 0)  -->
<svg version="1.1" id="Ebene_1" xmlns="http://www.w3.org/2000/svg" xmlns:xlink="http://www.w3.org/1999/xlink" x="0px" y="0px"
	 viewBox="0 0 283.5 283.5" style="enable-background:new 0 0 283.5 283.5;" xml:space="preserve">
<style type="text/css">
	.st0{fill:#FFDE32;}
	.st1{fill:none;stroke:#FFDE32;stroke-miterlimit:10;}
</style>
<g>
	<path class="st0" d="M92.1,110.3C92.1,110.3,92.1,110.3,92.1,110.3c-7.4,0-14.7-1.9-21-5.5l-0.1,0c-6.5-3.7-13.8-5.6-21.3-5.6
		c-2,0-4.1,0.2-6.1,0.5l-3.8,0.6v-3.8c0-31.3,10.3-53.3,30.6-65.2l0.1-0.1c20.2-11.8,46.3-5,58.1,15.2l0,0
		c11.8,20.2,5,46.3-15.2,58.1C107,108.3,99.6,110.3,92.1,110.3z M74.3,99.1c5.4,3.1,11.5,4.7,17.7,4.7c0,0,0.1,0,0.1,0
		c6.4,0,12.6-1.7,18.1-4.9c17.1-10,22.9-32.1,12.9-49.2c-10-17.1-32-22.9-49.1-12.9l-0.1,0c-9.8,5.7-17,14.2-21.5,25.2
		c-3.6,8.6-5.5,19-5.8,30.8c1.1-0.1,2.1-0.1,3.2-0.1C58.3,92.5,66.8,94.7,74.3,99.1L74.3,99.1z"/>
</g>
<g>
	<path class="st0" d="M91.6,257.5c-3.6,0-7.2-0.5-10.8-1.4c-11-2.9-20.2-9.8-25.9-19.6l0,0c-5.7-9.8-7.3-21.2-4.4-32.2
		s9.8-20.2,19.6-25.9c6.5-3.8,14-5.9,21.5-5.8c7.3,0,14.6,1.9,20.9,5.5l0.1,0c6.4,3.7,13.7,5.6,21,5.6c0.1,0,0.2,0,0.3,0
		c2,0,4.1-0.2,6.1-0.5l3.8-0.6v3.8c0,31.4-10.3,53.3-30.7,65.2l0,0C106.4,255.5,99.1,257.5,91.6,257.5z M60.5,233.2
		c4.9,8.3,12.6,14.2,21.9,16.6c9.3,2.4,19,1.1,27.3-3.8l0,0c9.8-5.7,17-14.2,21.5-25.2c3.6-8.6,5.5-19,5.8-30.8
		c-1.1,0.1-2.1,0.1-3.2,0.1c-0.1,0-0.2,0-0.3,0c-8.5,0-16.8-2.2-24.3-6.5l0,0c-5.4-3-11.5-4.7-17.7-4.7c0,0-0.1,0-0.1,0
		c-6.4,0-12.6,1.7-18.1,4.9c-8.3,4.9-14.2,12.6-16.6,21.9C54.3,215.2,55.7,224.9,60.5,233.2z"/>
</g>
<g>
	<path class="st0" d="M217.6,202.7l-1.4-3.5c-0.7-1.9-1.6-3.7-2.6-5.5c-3.7-6.4-9-11.9-15.5-15.6l0,0c-6.3-3.7-11.6-9-15.3-15.4
		c-3.8-6.5-5.8-14-5.7-21.6v0c0.1-11.4,4.6-22,12.6-30c8.1-8,18.8-12.3,30.1-12.3c23.4,0.1,42.4,19.3,42.2,42.8l0,0.1
		c-0.2,23.5-14,43.4-41.2,59.1L217.6,202.7z M183.6,141.2c0,6.4,1.6,12.7,4.8,18.2c3.1,5.4,7.6,9.9,12.9,13l0,0
		c7.5,4.4,13.7,10.6,17.9,18c0.5,0.9,1,1.9,1.5,2.8c10.1-6.2,18-13.1,23.7-20.4c7.3-9.4,11-19.9,11-31.2l0-0.1
		c0.1-19.8-15.9-35.9-35.7-36.1C200,105.3,183.8,121.3,183.6,141.2L183.6,141.2z"/>
</g>
<g>
	<path class="st1" d="M92.1,100.5"/>
</g>
<g>
	<path d="M92.1,44.9c-12.6,0-22.9,10.2-22.9,22.9s10.2,22.9,22.9,22.9S115,80.4,115,67.8S104.8,44.9,92.1,44.9z M92.1,84.1
		c-9,0-16.3-7.3-16.3-16.3s7.3-16.3,16.3-16.3c9,0,16.3,7.3,16.3,16.3S101.1,84.1,92.1,84.1z"/>
</g>
<g>
	<path d="M177.1,44.9c-6.4,0.1-12.2,3.3-16.4,7.6v-4.3h-6.5v19.6l0,0c0,0,0,0,0,0v18.9l6.6,0l-0.1-18.6c0-9.3,7.3-16.6,16.3-16.6
		c10.4,0,16.3,6.9,16.3,17.6v17.6h6.5V69C199.9,53.8,191,44.6,177.1,44.9z"/>
</g>
<g>
	<path d="M242.4,141.4c0-12.6-10.2-22.8-22.8-22.8c-12.6,0-22.9,10.2-22.9,22.9s10.2,22.9,22.9,22.9c6.8,0,12.5-3,16.3-7.8v5h6.5
		L242.4,141.4L242.4,141.4z M219.6,157.8c-9,0-16.3-7.3-16.3-16.3s7.3-16.3,16.3-16.3c9,0,16.3,7.3,16.3,16.3
		S228.7,157.8,219.6,157.8z"/>
</g>
<g>
	<path d="M157.3,141.4c0-12.6-10.1-22.9-22.8-22.9c-12.6,0-22.9,10.2-22.9,22.9s10.2,22.9,22.9,22.9c8.5,0,15.9-4.6,19.8-11.5
		l-0.3-0.1l-5.9-2.3c-2.9,4.4-7.9,7.4-13.7,7.4c-7.9,0-14.5-5.6-16-13.1h32c0,0,0,0,0,0h6.6C157.4,143.6,157.3,142.5,157.3,141.4z
		 M118.5,138.1c1.5-7.5,8.1-13.1,16-13.1c7.9,0,14.3,5.6,15.8,13.1L118.5,138.1z"/>
</g>
<g>
	<path d="M52.9,138.1l0,6.5h12.5c-1.5,7.5-7.9,13.1-15.8,13.1c-9,0-16.3-7.3-16.3-16.3c0-6.8,4.1-12.6,10-15.1c0,0,0,0,0,0
		c0.2-0.1,0.5-0.2,0.7-0.3c0,0,0,0,0,0c0.2-0.1,0.5-0.2,0.7-0.2c0,0,0,0,0.1,0c0.2-0.1,0.5-0.1,0.7-0.2c0,0,0,0,0.1,0
		c0.2-0.1,0.5-0.1,0.8-0.2c0,0,0,0,0,0c1.1-0.2,2.2-0.3,3.3-0.3c0.9,0,1.8,0.1,2.7,0.2c0,0,0,0,0.1,0c0.5,0.1,1,0.2,1.5,0.3
		c0,0,0,0,0,0c1.4,0.4,2.7,0.9,3.9,1.6l0,0c1.2,0.7,2.3,1.6,3.4,2.6c0,0,0,0,0,0l4.8-4.4c-0.1-0.1-0.1-0.1-0.2-0.2
		c-2.2-2.2-4.6-3.8-7.3-4.9c0,0-0.1,0-0.1,0c-0.2-0.1-0.4-0.2-0.6-0.2c0,0-0.1,0-0.1,0c-0.2-0.1-0.4-0.2-0.6-0.2
		c-0.1,0-0.2-0.1-0.2-0.1c-0.1,0-0.2-0.1-0.4-0.1c-0.1,0-0.2-0.1-0.3-0.1c-0.1,0-0.2-0.1-0.3-0.1c-0.2-0.1-0.5-0.1-0.7-0.2
		c-0.1,0-0.1,0-0.2,0c-0.1,0-0.3-0.1-0.4-0.1c-0.1,0-0.1,0-0.2,0c-0.1,0-0.3-0.1-0.4-0.1c-0.1,0-0.1,0-0.2,0c-0.2,0-0.5-0.1-0.7-0.1
		c-0.1,0-0.2,0-0.3,0c-0.1,0-0.2,0-0.4,0c-0.1,0-0.2,0-0.3,0c-0.1,0-0.2,0-0.3,0c-0.2,0-0.4,0-0.6-0.1c-0.1,0-0.1,0-0.2,0
		c-0.2,0-0.3,0-0.5,0c-0.1,0-0.1,0-0.2,0c-0.2,0-0.5,0-0.7,0c0,0,0,0,0,0c-0.2,0-0.4,0-0.6,0c-0.1,0-0.2,0-0.3,0c-0.1,0-0.2,0-0.3,0
		c-0.1,0-0.3,0-0.4,0c-0.1,0-0.1,0-0.2,0c-0.1,0-0.3,0-0.4,0c0,0-0.1,0-0.1,0c-0.2,0-0.3,0-0.5,0.1c0,0,0,0-0.1,0
		c-0.2,0-0.3,0-0.5,0.1c0,0,0,0,0,0c-1.1,0.2-2.2,0.4-3.2,0.7c0,0,0,0,0,0c-0.2,0-0.3,0.1-0.5,0.2c0,0,0,0-0.1,0
		c-0.1,0-0.3,0.1-0.4,0.1c0,0-0.1,0-0.1,0c-0.1,0-0.3,0.1-0.4,0.1c-0.1,0-0.1,0-0.2,0.1c-0.1,0-0.2,0.1-0.3,0.1
		c-0.1,0-0.2,0.1-0.2,0.1c-0.1,0-0.2,0.1-0.2,0.1c-0.1,0-0.2,0.1-0.3,0.1c-0.1,0-0.1,0.1-0.2,0.1c-0.1,0.1-0.2,0.1-0.4,0.2
		c0,0-0.1,0-0.1,0.1c-0.1,0.1-0.3,0.1-0.4,0.2c0,0,0,0-0.1,0c-0.2,0.1-0.3,0.2-0.5,0.2c0,0,0,0,0,0c-1,0.5-1.9,1.1-2.8,1.8
		c0,0,0,0,0,0c-0.1,0.1-0.3,0.2-0.4,0.3c0,0,0,0,0,0c-0.1,0.1-0.3,0.2-0.4,0.3c0,0-0.1,0-0.1,0.1c-0.1,0.1-0.2,0.2-0.3,0.3
		c0,0-0.1,0.1-0.1,0.1c-0.1,0.1-0.2,0.2-0.3,0.2c-0.1,0.1-0.1,0.1-0.2,0.2c-0.1,0.1-0.1,0.1-0.2,0.2c-0.1,0.1-0.3,0.3-0.4,0.4
		c0,0,0,0,0,0l0,0c-4.1,4.1-6.7,9.9-6.7,16.2c0,12.6,10.2,22.9,22.9,22.9s22.9-10.2,22.9-22.9c0-1.1-0.1-2.2-0.2-3.3H52.9z"/>
</g>
</svg>
