<?xml version="1.0" encoding="utf-8"?>
<!-- Generator: Adobe Illustrator 22.0.1, SVG Export Plug-In . SVG Version: 6.00 Build 0)  -->
<svg version="1.1" id="Layer_1" xmlns="http://www.w3.org/2000/svg" xmlns:xlink="http://www.w3.org/1999/xlink" x="0px" y="0px"
	 viewBox="0 0 135.9 152" style="enable-background:new 0 0 135.9 152;" xml:space="preserve">
<style type="text/css">
	.st0{clip-path:url(#SVGID_2_);fill:#CDCCCB;}
	.st1{clip-path:url(#SVGID_4_);fill:none;stroke:#FFFFFF;stroke-width:2.571;stroke-miterlimit:10;}
	.st2{clip-path:url(#SVGID_6_);fill:#FFDF4F;}
	.st3{clip-path:url(#SVGID_8_);fill:none;stroke:#FFFFFF;stroke-width:2.571;stroke-miterlimit:10;}
	.st4{clip-path:url(#SVGID_10_);fill:#CDCCCB;}
	.st5{clip-path:url(#SVGID_12_);fill:none;stroke:#FFFFFF;stroke-width:2.571;stroke-miterlimit:10;}
	.st6{clip-path:url(#SVGID_14_);fill:#FFDF4F;}
	.st7{clip-path:url(#SVGID_16_);fill:none;stroke:#FFFFFF;stroke-width:2.571;stroke-miterlimit:10;}
	.st8{clip-path:url(#SVGID_18_);fill:#CDCCCB;}
	.st9{clip-path:url(#SVGID_20_);fill:none;stroke:#FFFFFF;stroke-width:2.571;stroke-miterlimit:10;}
	.st10{clip-path:url(#SVGID_22_);fill:#FFDF4F;}
	.st11{clip-path:url(#SVGID_24_);fill:none;stroke:#FFFFFF;stroke-width:2.571;stroke-miterlimit:10;}
	.st12{fill:#FFDF4F;}
	.st13{fill:none;stroke:#092946;stroke-width:3.508;stroke-linecap:round;stroke-linejoin:round;stroke-miterlimit:10;}
</style>
<g>
	<g>
		<defs>
			<path id="SVGID_1_" d="M19.9,37.4C-6.6,64-6.6,107,19.9,133.6c26.5,26.5,69.6,26.5,96.1,0s26.5-69.6,0-96.1
				c-13.2-13.3-30.6-20-48-20S33.2,24.2,19.9,37.4"/>
		</defs>
		<clipPath id="SVGID_2_">
			<use xlink:href="#SVGID_1_"  style="overflow:visible;"/>
		</clipPath>
		<path class="st0" d="M77.2,190.3v-70.9c0-13.8,8.2-25.1,18.2-25.1h4.5c10.1,0,18.2,11.2,18.2,25.1v50.9
			C118.1,170.2,108.3,184.2,77.2,190.3"/>
	</g>
	<g>
		<defs>
			<path id="SVGID_3_" d="M19.9,37.4C-6.6,64-6.6,107,19.9,133.6c26.5,26.5,69.6,26.5,96.1,0s26.5-69.6,0-96.1
				c-13.2-13.3-30.6-20-48-20S33.2,24.2,19.9,37.4"/>
		</defs>
		<clipPath id="SVGID_4_">
			<use xlink:href="#SVGID_3_"  style="overflow:visible;"/>
		</clipPath>
		<path class="st1" d="M77.2,190.3v-70.9c0-13.8,8.2-25.1,18.2-25.1h4.5c10.1,0,18.2,11.2,18.2,25.1v50.9
			C118.1,170.2,108.3,184.2,77.2,190.3"/>
	</g>
	<g>
		<defs>
			<path id="SVGID_5_" d="M19.9,37.4C-6.6,64-6.6,107,19.9,133.6c26.5,26.5,69.6,26.5,96.1,0s26.5-69.6,0-96.1
				c-13.2-13.3-30.6-20-48-20S33.2,24.2,19.9,37.4"/>
		</defs>
		<clipPath id="SVGID_6_">
			<use xlink:href="#SVGID_5_"  style="overflow:visible;"/>
		</clipPath>
		<path class="st2" d="M116.6,82.9c0,10.5-8.5,18.9-18.9,18.9c-10.5,0-18.9-8.5-18.9-18.9c0-10.5,8.5-18.9,18.9-18.9
			C108.1,63.9,116.6,72.4,116.6,82.9"/>
	</g>
	<g>
		<defs>
			<path id="SVGID_7_" d="M19.9,37.4C-6.6,64-6.6,107,19.9,133.6c26.5,26.5,69.6,26.5,96.1,0s26.5-69.6,0-96.1
				c-13.2-13.3-30.6-20-48-20S33.2,24.2,19.9,37.4"/>
		</defs>
		<clipPath id="SVGID_8_">
			<use xlink:href="#SVGID_7_"  style="overflow:visible;"/>
		</clipPath>
		<circle class="st3" cx="97.7" cy="82.9" r="18.9"/>
	</g>
	<g>
		<defs>
			<path id="SVGID_9_" d="M19.9,37.4C-6.6,64-6.6,107,19.9,133.6c26.5,26.5,69.6,26.5,96.1,0s26.5-69.6,0-96.1
				c-13.2-13.3-30.6-20-48-20S33.2,24.2,19.9,37.4"/>
		</defs>
		<clipPath id="SVGID_10_">
			<use xlink:href="#SVGID_9_"  style="overflow:visible;"/>
		</clipPath>
		<path class="st4" d="M58,165.7v-46.3c0-13.8-8.2-25.1-18.2-25.1h-4.5c-10.1,0-18.2,11.2-18.2,25.1v46.3c0,0,24,24.3,39.4,24.3
			L58,165.7z"/>
	</g>
	<g>
		<defs>
			<path id="SVGID_11_" d="M19.9,37.4C-6.6,64-6.6,107,19.9,133.6c26.5,26.5,69.6,26.5,96.1,0s26.5-69.6,0-96.1
				c-13.2-13.3-30.6-20-48-20S33.2,24.2,19.9,37.4"/>
		</defs>
		<clipPath id="SVGID_12_">
			<use xlink:href="#SVGID_11_"  style="overflow:visible;"/>
		</clipPath>
		<path class="st5" d="M58,165.7v-46.3c0-13.8-8.2-25.1-18.2-25.1h-4.5c-10.1,0-18.2,11.2-18.2,25.1v46.3c0,0,24,24.3,39.4,24.3
			L58,165.7z"/>
	</g>
	<g>
		<defs>
			<path id="SVGID_13_" d="M19.9,37.4C-6.6,64-6.6,107,19.9,133.6c26.5,26.5,69.6,26.5,96.1,0s26.5-69.6,0-96.1
				c-13.2-13.3-30.6-20-48-20S33.2,24.2,19.9,37.4"/>
		</defs>
		<clipPath id="SVGID_14_">
			<use xlink:href="#SVGID_13_"  style="overflow:visible;"/>
		</clipPath>
		<path class="st6" d="M56.5,82.9c0,10.5-8.5,18.9-18.9,18.9c-10.5,0-18.9-8.5-18.9-18.9c0-10.5,8.5-18.9,18.9-18.9
			C48,63.9,56.5,72.4,56.5,82.9"/>
	</g>
	<g>
		<defs>
			<path id="SVGID_15_" d="M19.9,37.4C-6.6,64-6.6,107,19.9,133.6c26.5,26.5,69.6,26.5,96.1,0s26.5-69.6,0-96.1
				c-13.2-13.3-30.6-20-48-20S33.2,24.2,19.9,37.4"/>
		</defs>
		<clipPath id="SVGID_16_">
			<use xlink:href="#SVGID_15_"  style="overflow:visible;"/>
		</clipPath>
		<circle class="st7" cx="37.5" cy="82.9" r="18.9"/>
	</g>
	<g>
		<defs>
			<path id="SVGID_17_" d="M19.9,37.4C-6.6,64-6.6,107,19.9,133.6c26.5,26.5,69.6,26.5,96.1,0s26.5-69.6,0-96.1
				c-13.2-13.3-30.6-20-48-20S33.2,24.2,19.9,37.4"/>
		</defs>
		<clipPath id="SVGID_18_">
			<use xlink:href="#SVGID_17_"  style="overflow:visible;"/>
		</clipPath>
		<path class="st8" d="M46.2,187.5v-61.8c0-13.8,8.2-25.1,18.2-25.1h4.5c10.1,0,18.2,11.2,18.2,25.1v61.8"/>
	</g>
	<g>
		<defs>
			<path id="SVGID_19_" d="M19.9,37.4C-6.6,64-6.6,107,19.9,133.6c26.5,26.5,69.6,26.5,96.1,0s26.5-69.6,0-96.1
				c-13.2-13.3-30.6-20-48-20S33.2,24.2,19.9,37.4"/>
		</defs>
		<clipPath id="SVGID_20_">
			<use xlink:href="#SVGID_19_"  style="overflow:visible;"/>
		</clipPath>
		<path class="st9" d="M46.2,187.5v-61.8c0-13.8,8.2-25.1,18.2-25.1h4.5c10.1,0,18.2,11.2,18.2,25.1v61.8"/>
	</g>
	<g>
		<defs>
			<path id="SVGID_21_" d="M19.9,37.4C-6.6,64-6.6,107,19.9,133.6c26.5,26.5,69.6,26.5,96.1,0s26.5-69.6,0-96.1
				c-13.2-13.3-30.6-20-48-20S33.2,24.2,19.9,37.4"/>
		</defs>
		<clipPath id="SVGID_22_">
			<use xlink:href="#SVGID_21_"  style="overflow:visible;"/>
		</clipPath>
		<path class="st10" d="M85.6,89.3c0,10.5-8.5,19-18.9,19c-10.5,0-18.9-8.5-18.9-19s8.5-18.9,18.9-18.9
			C77.1,70.3,85.6,78.8,85.6,89.3"/>
	</g>
	<g>
		<defs>
			<path id="SVGID_23_" d="M19.9,37.4C-6.6,64-6.6,107,19.9,133.6c26.5,26.5,69.6,26.5,96.1,0s26.5-69.6,0-96.1
				c-13.2-13.3-30.6-20-48-20S33.2,24.2,19.9,37.4"/>
		</defs>
		<clipPath id="SVGID_24_">
			<use xlink:href="#SVGID_23_"  style="overflow:visible;"/>
		</clipPath>
		<circle class="st11" cx="66.7" cy="89.3" r="18.9"/>
	</g>
</g>
<g>
	<path class="st12" d="M47.1,11.2c1.1-1.7,2.3-3.3,3.8-4.7C55.5,2.1,61.5-0.2,67.8,0C74.1,0.2,80,2.8,84.4,7.4
		c4.3,4.6,6.7,10.6,6.5,16.9c-0.1,4.2-1.3,8.3-3.6,11.9c-2.2,3.5-5.2,6.3-8.8,8.3l0,0c-3.6,2-6.7,4.8-8.8,8.3l-0.1,0.1
		c-0.6,1-1.1,2-1.6,3l-0.8,1.9l-1.8-1.1C50.6,47.5,43.3,36.1,43.6,23l0,0C43.7,18.8,44.9,14.7,47.1,11.2"/>
	<polygon class="st13" points="62.9,45 59.2,28.4 62.9,31.6 66.5,28.4 70.4,31.6 74.4,28.4 72.7,45 	"/>
	<line class="st13" x1="62.9" y1="49.6" x2="72.7" y2="49.6"/>
	<line class="st13" x1="62.9" y1="50.2" x2="72.7" y2="50.2"/>
	<line class="st13" x1="64.1" y1="55.4" x2="71.5" y2="55.4"/>
</g>
</svg>
