<!-- Generator: Adobe Illustrator 19.1.0, SVG Export Plug-In  -->
<svg version="1.1"
	 xmlns="http://www.w3.org/2000/svg" xmlns:xlink="http://www.w3.org/1999/xlink" xmlns:a="http://ns.adobe.com/AdobeSVGViewerExtensions/3.0/"
	 x="0px" y="0px" width="123.9px" height="127.9px" viewBox="0 0 123.9 127.9" style="enable-background:new 0 0 123.9 127.9;"
	 xml:space="preserve">
<style type="text/css">
	.st0{fill:#CDCCCB;}
	.st1{fill:#FFFFFF;}
	.st2{fill:#092946;}
	.st3{fill:#FFDF4F;}
	.st4{fill:none;stroke:#092946;stroke-width:5.142;stroke-linecap:round;stroke-miterlimit:10;}
	.st5{fill:none;stroke:#092946;stroke-width:5.142;stroke-linecap:round;stroke-linejoin:round;stroke-miterlimit:10;}
</style>
<defs>
</defs>
<polygon class="st0" points="76.5,11.9 74.2,11 72,11.9 50.2,21.4 28.5,11.9 26.2,11 24,11.9 0,22.4 0,108 26.2,96.6 48,106.1 
	50.2,107 52.5,106.1 74.2,96.6 100.5,108 100.5,22.4 "/>
<path class="st1" d="M76.5,11.9l-2.3-1l-2.3,1l-21.7,9.5l-21.7-9.5l-2.3-1l-2.3,1L0,22.4V108l26.2-11.4l21.8,9.5l2.2,1l2.2-1
	l21.8-9.5l26.2,11.4V22.4L76.5,11.9z M48,101.1l-19.5-8.5V16.9L48,25.4V101.1z M96,101.1l-19.5-8.5V16.9L96,25.4V101.1z"/>
<path class="st2" d="M76.5,11.9l-2.3-1l-2.3,1l-21.7,9.5l-21.7-9.5l-2.3-1l-2.3,1L0,22.4V108l26.2-11.4l21.8,9.5l2.2,1l2.2-1
	l21.8-9.5l26.2,11.4V22.4L76.5,11.9z M24,92.6l-19.5,8.5V25.4L24,16.9V92.6z M48,101.1l-19.5-8.5V16.9L48,25.4V101.1z M72,92.6
	l-19.5,8.5V25.4L72,16.9V92.6z M96,101.1l-19.5-8.5V16.9L96,25.4V101.1z"/>
<path class="st3" d="M43.7,9.7c0.9-1.5,2-2.8,3.3-4.1C51,1.9,56.1-0.1,61.6,0C67,0.1,72.1,2.4,75.8,6.3c3.7,3.9,5.7,9.1,5.6,14.6
	c-0.1,3.6-1.2,7.2-3.1,10.2c-1.9,3-4.5,5.4-7.5,7.1l0,0c-3.1,1.7-5.7,4.2-7.6,7.1c0,0,0,0.1-0.1,0.1c-0.5,0.8-1,1.7-1.3,2.6L61,49.8
	l-1.5-1c-12.8-7.9-19.1-17.7-18.8-29v0C40.8,16.2,41.8,12.7,43.7,9.7"/>
<path class="st1" d="M69.4,20.3c0,4.6-3.7,8.4-8.4,8.4c-4.6,0-8.4-3.7-8.4-8.4c0-4.6,3.7-8.4,8.4-8.4C65.7,12,69.4,15.7,69.4,20.3"
	/>
<circle class="st4" cx="61" cy="20.3" r="8.4"/>
<path class="st4" d="M88.3,59.5c18.2,0,32.9,14.8,32.9,32.9c0,18.2-14.8,32.9-32.9,32.9"/>
<polyline class="st5" points="92.1,67.4 84.4,59.5 92.1,52.9 "/>
<path class="st4" d="M80.1,124c-2.7-0.1-5.4-0.4-8.1-0.9"/>
</svg>
