<!-- Generator: Adobe Illustrator 19.1.0, SVG Export Plug-In  -->
<svg version="1.1"
	 xmlns="http://www.w3.org/2000/svg" xmlns:xlink="http://www.w3.org/1999/xlink" xmlns:a="http://ns.adobe.com/AdobeSVGViewerExtensions/3.0/"
	 x="0px" y="0px" width="159px" height="99.6px" viewBox="0 0 159 99.6" style="enable-background:new 0 0 159 99.6;"
	 xml:space="preserve">
<style type="text/css">
	.st0{fill:#FFFFFF;}
	.st1{fill:#CDCCCB;}
	.st2{fill:#17354D;}
	.st3{fill:none;stroke:#092946;stroke-width:5.142;stroke-linecap:round;stroke-miterlimit:10;}
	.st4{fill:none;stroke:#FFFFFF;stroke-width:5.142;stroke-linecap:round;stroke-miterlimit:10;}
	.st5{fill:#FFDF4F;}
	.st6{fill:none;stroke:#092946;stroke-width:5.142;stroke-linecap:round;stroke-linejoin:round;stroke-miterlimit:10;}
</style>
<defs>
</defs>
<path class="st0" d="M94.7,87.9c0,5-4.1,9.1-9.1,9.1H11.7c-5,0-9.1-4.1-9.1-9.1V43.2c0-5,4.1-9.1,9.1-9.1h73.9c5,0,9.1,4.1,9.1,9.1
	V87.9z"/>
<path class="st1" d="M94.7,89.3c0,4.3-4.1,7.8-9.1,7.8H11.7c-5,0-9.1-3.5-9.1-7.8V51.2h92.1V89.3z"/>
<path class="st2" d="M15.5,44c0,1.6-1.3,2.9-2.9,2.9c-1.6,0-2.9-1.3-2.9-2.9c0-1.6,1.3-2.9,2.9-2.9C14.2,41.1,15.5,42.4,15.5,44"/>
<path class="st2" d="M23.7,44c0,1.6-1.3,2.9-2.9,2.9c-1.6,0-2.9-1.3-2.9-2.9c0-1.6,1.3-2.9,2.9-2.9C22.4,41.1,23.7,42.4,23.7,44"/>
<path class="st2" d="M31.9,44c0,1.6-1.3,2.9-2.9,2.9c-1.6,0-2.9-1.3-2.9-2.9c0-1.6,1.3-2.9,2.9-2.9C30.6,41.1,31.9,42.4,31.9,44"/>
<path class="st3" d="M94.7,87.9c0,5-4.1,9.1-9.1,9.1H11.7c-5,0-9.1-4.1-9.1-9.1V43.2c0-5,4.1-9.1,9.1-9.1h73.9c5,0,9.1,4.1,9.1,9.1
	V87.9z"/>
<line class="st3" x1="15" y1="68.8" x2="15" y2="79.1"/>
<line class="st3" x1="33.2" y1="68.8" x2="33.2" y2="79.1"/>
<line class="st3" x1="24.1" y1="58.7" x2="24.1" y2="79.1"/>
<line class="st4" x1="15" y1="86.8" x2="34.3" y2="86.8"/>
<path class="st5" d="M61.8,87.6c0,1.6-1.3,2.9-2.9,2.9c-1.6,0-2.9-1.3-2.9-2.9c0-1.6,1.3-2.9,2.9-2.9C60.5,84.8,61.8,86.1,61.8,87.6
	"/>
<path class="st5" d="M70,87.6c0,1.6-1.3,2.9-2.9,2.9c-1.6,0-2.9-1.3-2.9-2.9c0-1.6,1.3-2.9,2.9-2.9C68.7,84.8,70,86.1,70,87.6"/>
<path class="st5" d="M78.2,87.6c0,1.6-1.3,2.9-2.9,2.9c-1.6,0-2.9-1.3-2.9-2.9c0-1.6,1.3-2.9,2.9-2.9C76.9,84.8,78.2,86.1,78.2,87.6
	"/>
<path class="st0" d="M156.4,56.4c0,5-4.1,9.1-9.1,9.1H73.4c-5,0-9.1-4.1-9.1-9.1V11.7c0-5,4.1-9.1,9.1-9.1h73.9c5,0,9.1,4.1,9.1,9.1
	V56.4z"/>
<path class="st1" d="M156.4,57.8c0,4.3-4.1,7.8-9.1,7.8H73.4c-5,0-9.1-3.5-9.1-7.8V19.7h92.1V57.8z"/>
<path class="st2" d="M77.2,12.5c0,1.6-1.3,2.9-2.9,2.9c-1.6,0-2.9-1.3-2.9-2.9c0-1.6,1.3-2.9,2.9-2.9C75.9,9.7,77.2,10.9,77.2,12.5"
	/>
<path class="st2" d="M85.4,12.5c0,1.6-1.3,2.9-2.9,2.9c-1.6,0-2.9-1.3-2.9-2.9c0-1.6,1.3-2.9,2.9-2.9C84.1,9.7,85.4,10.9,85.4,12.5"
	/>
<path class="st2" d="M93.6,12.5c0,1.6-1.3,2.9-2.9,2.9c-1.6,0-2.9-1.3-2.9-2.9c0-1.6,1.3-2.9,2.9-2.9C92.3,9.7,93.6,10.9,93.6,12.5"
	/>
<circle class="st3" cx="131.3" cy="36.9" r="12.2"/>
<polyline class="st6" points="143.5,36.9 131.3,36.9 133.9,30.5 "/>
<line class="st4" x1="121.4" y1="57.5" x2="140.7" y2="57.5"/>
<path class="st5" d="M85.5,34.1H64.3v22.4c0,5,4.1,9.1,9.1,9.1h21.2V43.2C94.7,38.1,90.6,34.1,85.5,34.1"/>
<path class="st3" d="M156.4,56.4c0,5-4.1,9.1-9.1,9.1H73.4c-5,0-9.1-4.1-9.1-9.1V11.7c0-5,4.1-9.1,9.1-9.1h73.9c5,0,9.1,4.1,9.1,9.1
	V56.4z"/>
<path class="st3" d="M94.7,87.9c0,5-4.1,9.1-9.1,9.1H11.7c-5,0-9.1-4.1-9.1-9.1V43.2c0-5,4.1-9.1,9.1-9.1h73.9c5,0,9.1,4.1,9.1,9.1
	V87.9z"/>
<polyline class="st6" points="74.4,51.2 79.7,57.5 85.4,41.1 "/>
</svg>
